<?xml version="1.0" encoding="iso-8859-1"?>
<!-- Generator: Adobe Illustrator 19.0.0, SVG Export Plug-In . SVG Version: 6.00 Build 0)  -->
<svg fill="#266" version="1.1" id="Layer_1" xmlns="http://www.w3.org/2000/svg" xmlns:xlink="http://www.w3.org/1999/xlink" x="0px" y="0px"
	 viewBox="0 0 486.395 486.395" style="enable-background:new 0 0 486.395 486.395;" xml:space="preserve">
<path d="M486.395,113.609l-46.198-46.198l46.016-46.016L465,0.182l-46.016,46.016L372.786,0L55.796,316.991L24.463,425.937
	l7.391,7.391L0,465.182l21.213,21.213l31.854-31.854l7.391,7.392L169.405,430.6l246.232-246.233l21.254,21.254l-93.647,93.647
	l21.213,21.213l114.86-114.86l-42.467-42.467L486.395,113.609z M443.969,113.609l-28.332,28.332l-71.182-71.183l28.332-28.332
	L443.969,113.609z M58.183,417.23l18.342-63.775l56.415,56.415l-63.775,18.342L58.183,417.23z M161.536,396.041l-71.182-71.182
	L323.242,91.971l71.182,71.183L161.536,396.041z"/>
<g>
</g>
<g>
</g>
<g>
</g>
<g>
</g>
<g>
</g>
<g>
</g>
<g>
</g>
<g>
</g>
<g>
</g>
<g>
</g>
<g>
</g>
<g>
</g>
<g>
</g>
<g>
</g>
<g>
</g>
</svg>
