<svg viewBox="0 0 484 512" fill="none" xmlns="http://www.w3.org/2000/svg">
<path fill-rule="evenodd" clip-rule="evenodd" d="M481.9 166.6C485.1 175.3 482.4 185 475.5 191.2L432.2 230.6C433.3 238.9 433.9 247.4 433.9 256C433.9 264.6 433.3 273.1 432.2 281.4L475.5 320.8C482.4 327 485.1 336.7 481.9 345.4C477.5 357.3 472.2 368.7 466.1 379.7L461.4 387.8C454.8 398.8 447.4 409.2 439.3 419C433.4 426.2 423.6 428.6 414.8 425.8L359.1 408.1C345.7 418.4 330.9 427 315.1 433.5L302.6 490.6C300.6 499.7 293.6 506.9 284.4 508.4C270.6 510.7 256.4 511.9 241.9 511.9C227.4 511.9 213.2 510.7 199.4 508.4C190.2 506.9 183.2 499.7 181.2 490.6L168.7 433.5C152.9 427 138.1 418.4 124.7 408.1L69.1 425.9C60.3 428.7 50.5 426.2 44.6 419.1C36.5 409.3 29.1 398.9 22.5 387.9L17.8 379.8C11.7 368.8 6.39999 357.4 1.99999 345.5C-1.20001 336.8 1.49999 327.1 8.39999 320.9L51.7 281.5C50.6 273.1 50 264.6 50 256C50 247.4 50.6 238.9 51.7 230.6L8.39999 191.2C1.49999 185 -1.20001 175.3 1.99999 166.6C6.39999 154.7 11.7 143.3 17.8 132.3L22.5 124.2C29.1 113.2 36.5 102.8 44.6 93C50.5 85.8 60.3 83.4 69.1 86.2L124.8 103.9C138.2 93.6 153 85 168.8 78.5L181.3 21.4C183.3 12.3 190.3 5.1 199.5 3.6C213.3 1.2 227.5 0 242 0C256.5 0 270.7 1.2 284.5 3.5C293.7 5 300.7 12.2 302.7 21.3L315.2 78.4C331 84.9 345.8 93.5 359.2 103.8L414.9 86.1C423.7 83.3 433.5 85.8 439.4 92.9C447.5 102.7 454.9 113.1 461.5 124.1L466.2 132.2C472.3 143.2 477.6 154.6 482 166.5L481.9 166.6ZM196.776 169.565C202.972 166.07 210.603 166.194 216.675 169.935L334.839 242.293C340.707 245.911 344.276 252.242 344.276 259.149C344.276 266.056 340.707 272.428 334.839 276.005L216.675 348.363C210.603 352.063 202.972 352.228 196.776 348.733C190.581 345.239 186.724 338.661 186.724 331.507V186.791C186.724 179.637 190.581 173.059 196.776 169.565Z" fill="rgb(231, 231, 231)"/>
</svg>
