<svg width="772" height="397" viewBox="0 0 772 397" fill="none" xmlns="http://www.w3.org/2000/svg">
<path d="M374.773 150.725C381.021 145.643 389.979 145.643 396.227 150.725L683.705 384.559C688.821 388.72 685.878 397 679.284 397V397C678.4 397 677.524 396.833 676.702 396.507L391.784 283.523C387.748 281.923 383.253 281.927 379.221 283.535L96.0267 396.463C95.1376 396.818 94.1892 397 93.2321 397V397C86.1309 397 82.9623 388.083 88.4713 383.602L374.773 150.725Z" fill="#7BB9DB"/>
<path d="M373.954 19.0966C380.599 12.424 391.401 12.424 398.046 19.0966L754.722 377.271C760.881 383.456 756.5 394 747.772 394V394C746.277 394 744.802 393.658 743.459 393.001L393.496 221.67C388.768 219.355 383.235 219.361 378.512 221.686L30.706 392.914C29.2548 393.628 27.6588 394 26.0411 394V394C16.6425 394 11.9254 382.646 18.5574 375.986L373.954 19.0966Z" fill="#4083A9"/>
<path d="M391.638 202C381.504 202 372.038 200.2 363.238 196.6C354.438 192.867 346.704 187.733 340.038 181.2C333.371 174.667 328.171 167.067 324.438 158.4C320.838 149.6 319.038 140.133 319.038 130C319.038 120 320.838 110.667 324.438 102C328.171 93.3333 333.304 85.8 339.838 79.4C346.504 72.8667 354.238 67.8 363.038 64.2C371.838 60.6 381.304 58.8 391.438 58.8C398.504 58.8 405.371 59.8 412.038 61.8C418.838 63.8 424.971 66.6 430.438 70.2C435.904 73.8 440.371 77.9333 443.838 82.6L429.838 97.2C425.838 93.3333 421.704 90.1333 417.438 87.6C413.304 85.0667 409.038 83.1333 404.638 81.8C400.238 80.4667 395.838 79.8 391.438 79.8C384.238 79.8 377.571 81.0667 371.438 83.6C365.438 86.1333 360.104 89.6667 355.438 94.2C350.904 98.7333 347.371 104.067 344.838 110.2C342.304 116.2 341.038 122.8 341.038 130C341.038 136.933 342.371 143.533 345.038 149.8C347.704 155.933 351.371 161.333 356.038 166C360.838 170.667 366.304 174.333 372.438 177C378.704 179.667 385.304 181 392.238 181C397.438 181 402.371 180.267 407.038 178.8C411.704 177.2 415.838 175 419.438 172.2C423.038 169.4 425.838 166.2 427.838 162.6C429.838 158.867 430.838 154.933 430.838 150.8V146.8L433.838 149.6H391.038V128.2H453.038C453.304 129.667 453.504 131.133 453.638 132.6C453.771 133.933 453.838 135.267 453.838 136.6C453.971 137.8 454.038 139 454.038 140.2C454.038 149.4 452.438 157.8 449.238 165.4C446.038 172.867 441.571 179.333 435.838 184.8C430.238 190.267 423.638 194.533 416.038 197.6C408.571 200.533 400.438 202 391.638 202Z" fill="#E6CF00"/>
<path d="M463 121C463 110.441 460.367 100.051 455.343 90.7856C450.319 81.5201 443.066 73.676 434.249 67.9743C425.432 62.2726 415.335 58.8961 404.885 58.1553C394.436 57.4144 383.969 59.3329 374.447 63.7344C364.925 68.1359 356.654 74.8792 350.393 83.3446C344.132 91.8101 340.082 101.726 338.615 112.181C337.149 122.636 338.313 133.295 342.001 143.178C345.689 153.062 351.782 161.852 359.72 168.742L388.169 135.436C385.769 133.353 383.926 130.695 382.811 127.706C381.696 124.718 381.344 121.495 381.788 118.333C382.231 115.172 383.456 112.174 385.349 109.614C387.242 107.054 389.743 105.015 392.622 103.684C395.501 102.353 398.666 101.773 401.826 101.997C404.986 102.221 408.039 103.242 410.705 104.966C413.371 106.69 415.564 109.062 417.083 111.864C418.602 114.666 419.398 117.807 419.398 121H463Z" fill="#4083A9"/>
<path d="M391 128C391 149.6 430.8 149.6 430.8 149.6L421.5 155.5L391 151V128Z" fill="#4083A9"/>
<circle cx="406" cy="145" r="8" fill="#E6CF00"/>
</svg>
